# xmcd
#
# Track frame offsets:
#	150
#	12426
#	23811
#	35354
#	44760
#	55566
#	65441
#	77764
#	86733
#	98491
#	109804
#	121798
#	132203
#
# Disc length: 1913 seconds
#
# Revision: 1
# Processed by: cddbd v1.5.2PL0 Copyright (c) Steve Scherf et al.
# Submitted via: audiograbber 1.83.01
#
DISCID=9f07770d
DTITLE=Wynn Stewart - Greatest Country Hits
DYEAR=1900
DGENRE=
TTITLE0=Waltz Of The Angels
TTITLE1=It's Such A Pretty World Today
TTITLE2='Cause I Have You
TTITLE3=Love's Gonna Happen To Me
TTITLE4=Something Pretty
TTITLE5=In Love
TTITLE6=Let The Whole World Sing It With Me
TTITLE7=World Wide Travelin' Man
TTITLE8=It's A Beautiful Day
TTITLE9=Strings
TTITLE10=Heavenly
TTITLE11=I Keep Forgetting That I Forgot About You
TTITLE12=Yours Forever
EXTD=
EXTT0=
EXTT1=
EXTT2=
EXTT3=
EXTT4=
EXTT5=
EXTT6=
EXTT7=
EXTT8=
EXTT9=
EXTT10=
EXTT11=
EXTT12=
PLAYORDER=
